<svg xmlns:dc="http://purl.org/dc/elements/1.1/" xmlns:cc="http://creativecommons.org/ns#" xmlns:rdf="http://www.w3.org/1999/02/22-rdf-syntax-ns#" xmlns:svg="http://www.w3.org/2000/svg" xmlns="http://www.w3.org/2000/svg" viewBox="0 0 128 128" fill="none"><metadata><rdf:RDF><cc:Work><dc:format>image/svg+xml</dc:format><dc:type rdf:resource="http://purl.org/dc/dcmitype/StillImage"/><dc:title>Croodles - Doodle your face</dc:title><dc:creator><cc:Agent><dc:title>vijay verma</dc:title></cc:Agent></dc:creator><dc:source>https://www.figma.com/community/file/966199982810283152</dc:source><cc:license rdf:resource="https://creativecommons.org/licenses/by/4.0/"/></cc:Work><cc:License rdf:about="https://creativecommons.org/licenses/by/4.0/"><cc:permits rdf:resource="https://creativecommons.org/ns#Reproduction"/><cc:permits rdf:resource="https://creativecommons.org/ns#Distribution"/><cc:permits rdf:resource="https://creativecommons.org/ns#DerivativeWorks"/><cc:requires rdf:resource="https://creativecommons.org/ns#Notice"/><cc:requires rdf:resource="https://creativecommons.org/ns#Attribution"/></cc:License></rdf:RDF></metadata><mask id="avatarsRadiusMask"><rect width="128" height="128" rx="0" ry="0" x="0" y="0" fill="#fff"/></mask><g mask="url(#avatarsRadiusMask)"><g transform="translate(7 4)"><g stroke="#000" stroke-width="3" stroke-linecap="round" stroke-linejoin="round"><path d="M25.508 18.188c1.685-1.252 6.125-2.587 11.267-1.878 4.493.62 6.435 2.245 7.736 4.267M72.914 20.047c2.16-2.8 5.933-3.351 8.298-3.483 2.365-.132 5.04 0 7.165.683M4 20.632l13.684 8.495M48.232 32.957c5.142-3.297 17.622-3.304 20.454-1.835M96.88 28.803c2.544-1.323 10.581-8.782 13.124-10.613M18.146 29.718c-.34 3.702-.418 13.116 4.334 16.62 4.76 3.51 23.542-.341 25.255-.947 1.617-.573 1.665-7.8-.894-14.373-2.15-5.522-20.502-3.698-28.098-2.34"/><path d="M70.486 27.953c5.988-2.674 21.938-.9 24.97 0 3.79 1.126 4.147 10.342 3.802 13.717-.344 3.376-20.459 3.436-25.11 3.249-3.721-.15-4.915-11.643-4.053-16.518M33.43 32.3c-.401.247-1.13.963-.834 1.853.37 1.111 3.428 2.501 3.52.833.094-1.667-.462-2.316-1.203-1.575"/><path d="M81.613 31.205c-.617.556-1.668 1.797-.926 2.316.926.648 4.169 2.316 3.89 0-.222-1.853-1.08-1.699-1.482-1.39l-.833.741"/></g></g><g transform="translate(47 46)"><path d="M2 2.745c3.502 0 7.716 5.688 8.111 14.749.643 14.704-4.162 19.358 0 26.97 2.728 4.989 17.76 4.733 21.85-3.534 3.218-6.502-2.929-12.045-6.593-20.744C21.873 11.894 19.66 6.796 23.314 2" stroke="#000" stroke-width="3" stroke-linecap="round" stroke-linejoin="round"/></g><g transform="translate(30 93)"><path d="M44.351 6.502C40.236 8.559 24.01 13.19 14 10.658c6.187 10.009 34.962 11.423 39.612 2.532 4.914-9.399-4.116-9.26-9.26-6.688Z" stroke="#000" stroke-width="3" stroke-linecap="round" stroke-linejoin="round"/></g></g></svg>